<?xml version="1.0" encoding="UTF-8"?>
<!-- Generator: visioncortex VTracer 0.6.4 -->
<svg version="1.1" xmlns="http://www.w3.org/2000/svg" width="111" height="64">
<path d="M0 0 C0 1.65 0 3.3 0 5 C0.66 4.67 1.32 4.34 2 4 C20.31 2.84 44.18 2.1 60.33 12.5 C60.88 12.99 61.43 13.49 62 14 C62 14.66 62 15.32 62 16 C62.99 16 63.98 16 65 16 C68.25 21.28 68.46 25.55 68.38 31.56 C68.39 32.4 68.4 33.24 68.41 34.1 C68.39 38.86 68.23 42.25 65 46 C60.3 50.2 55.2 52.32 49.25 54.19 C48.52 54.43 47.78 54.68 47.02 54.94 C24.78 62.15 -2.43 62.07 -23.81 52.06 C-27.91 49.83 -31.03 47.59 -34 44 C-34.33 43.67 -34.66 43.34 -35 43 C-35.1 41.23 -35.13 39.46 -35.13 37.69 C-35.13 36.61 -35.14 35.54 -35.14 34.43 C-35.13 32.73 -35.13 32.73 -35.12 31 C-35.13 29.87 -35.13 28.74 -35.14 27.57 C-35.14 26.5 -35.13 25.42 -35.13 24.31 C-35.13 23.32 -35.13 22.32 -35.13 21.3 C-35 19 -35 19 -34 18 C-33.76 15.14 -33.58 12.3 -33.44 9.44 C-33.39 8.63 -33.35 7.82 -33.31 6.99 C-33.2 5 -33.1 3 -33 1 C-30.94 0.52 -28.88 0.04 -26.81 -0.44 C-25.09 -0.84 -25.09 -0.84 -23.33 -1.25 C-14.55 -3.23 -8.18 -4.09 0 0 Z " fill="#02B2FC" transform="translate(39,4)"/>
<path d="M0 0 C2.1 2.86 2.63 4.56 2.56 8.12 C-1.81 15.41 -8.8 17.5 -16.66 19.71 C-23.94 21.49 -31.03 21.61 -38.47 21.57 C-40.74 21.56 -43 21.59 -45.26 21.62 C-58.3 21.68 -74.15 20.23 -83.94 10.69 C-85.66 7.75 -85.83 6.47 -85.44 3.12 C-79.45 -5.13 -69.21 -7.59 -59.69 -9.12 C-40.37 -11.29 -16.31 -12.55 0 0 Z " fill="#02BDFA" transform="translate(96.4375,20.875)"/>
<path d="M0 0 C0 1.65 0 3.3 0 5 C0.66 4.67 1.32 4.34 2 4 C20.31 2.84 44.18 2.1 60.33 12.5 C60.88 12.99 61.43 13.49 62 14 C62 14.66 62 15.32 62 16 C61.34 16 60.68 16 60 16 C60.52 16.7 61.03 17.4 61.56 18.12 C63 21 63 21 63.12 23.94 C61.03 29.64 56.24 32.58 50.94 35.19 C39.67 39.64 28.12 40.54 16.12 40.44 C15.43 40.44 14.73 40.44 14.01 40.43 C4.61 40.41 -4.14 39.81 -13.14 36.88 C-16.3 35.76 -16.3 35.76 -21 36 C-21 40.95 -21 45.9 -21 51 C-22.48 51.49 -22.48 51.49 -24 52 C-26.87 50.38 -26.87 50.38 -30 48 C-30.88 47.38 -31.76 46.76 -32.67 46.12 C-36.28 41.29 -35.57 36.6 -35.38 30.75 C-35.36 29.64 -35.35 28.52 -35.33 27.38 C-35.18 19.18 -35.18 19.18 -34 18 C-33.76 15.14 -33.58 12.3 -33.44 9.44 C-33.39 8.63 -33.35 7.82 -33.31 6.99 C-33.2 5 -33.1 3 -33 1 C-30.94 0.52 -28.88 0.04 -26.81 -0.44 C-25.09 -0.84 -25.09 -0.84 -23.33 -1.25 C-14.55 -3.23 -8.18 -4.09 0 0 Z M-26.64 18.12 C-28.43 20.59 -28.4 22.01 -28 25 C-23.32 32.4 -16.48 34.49 -8.27 36.59 C-0.78 38.27 6.47 38.49 14.11 38.45 C16.37 38.44 18.62 38.47 20.88 38.5 C34.57 38.56 48.67 36.82 59.06 27.06 C60.48 23.95 60.05 22.22 59 19 C53.2 11.14 42.57 9.22 33.46 7.54 C14.15 4.84 -11.24 4.82 -26.64 18.12 Z " fill="#1699CD" transform="translate(39,4)"/>
<path d="M0 0 C0.33 0 0.66 0 1 0 C1.08 3.06 1.14 6.12 1.19 9.19 C1.21 10.05 1.24 10.92 1.26 11.81 C1.32 16.69 1.35 20.17 -2 24 C-6.7 28.2 -11.8 30.32 -17.75 32.19 C-18.85 32.56 -18.85 32.56 -19.98 32.94 C-30.9 36.48 -41.23 37.28 -52.69 37.12 C-53.97 37.12 -55.26 37.11 -56.58 37.1 C-59.72 37.07 -62.86 37.04 -66 37 C-65.67 36.34 -65.34 35.68 -65 35 C-58.4 35.33 -51.8 35.66 -45 36 C-44.73 34.41 -44.46 32.82 -44.19 31.19 C-43.55 27.4 -43.02 25.42 -40 23 C-37.7 22.32 -37.7 22.32 -35.04 21.9 C-33.59 21.66 -33.59 21.66 -32.11 21.41 C-31.11 21.26 -30.1 21.1 -29.06 20.94 C-27.07 20.62 -25.08 20.29 -23.1 19.96 C-22.22 19.83 -21.33 19.69 -20.43 19.55 C-18.02 19 -16.15 18.2 -14 17 C-14 16.34 -14 15.68 -14 15 C-11.92 13.6 -11.92 13.6 -9.19 12.06 C-4.67 9.55 -4.67 9.55 -1 6 C-0.27 2.89 -0.27 2.89 0 0 Z " fill="#07A8F4" transform="translate(106,26)"/>
<path d="M0 0 C0 0.33 0 0.66 0 1 C-0.82 1.2 -0.82 1.2 -1.65 1.4 C-4.14 2 -6.63 2.63 -9.12 3.25 C-9.98 3.45 -10.84 3.66 -11.72 3.87 C-16.95 5.2 -20.65 6.83 -25 10 C-25.66 10 -26.32 10 -27 10 C-28.21 13.64 -28.4 16.18 -28 20 C-25.55 22.98 -23.2 24.86 -20 27 C-20.33 27.99 -20.66 28.98 -21 30 C-21.23 32.73 -21.42 35.45 -21.56 38.19 C-21.61 38.94 -21.65 39.69 -21.69 40.46 C-21.8 42.31 -21.9 44.15 -22 46 C-26.54 43.85 -29.59 41.71 -33 38 C-33.33 37.67 -33.66 37.34 -34 37 C-34.45 33.14 -34.51 29.26 -34.62 25.38 C-34.7 24.29 -34.77 23.21 -34.84 22.1 C-35.02 14.22 -35.02 14.22 -32.11 10.75 C-22.83 3.39 -11.83 -0.5 0 0 Z " fill="#07B4F5" transform="translate(38,10)"/>
<path d="M0 0 C-0.54 0.33 -1.09 0.65 -1.64 0.99 C-2.72 1.64 -2.72 1.64 -3.81 2.31 C-4.87 2.96 -4.87 2.96 -5.96 3.61 C-7.91 4.94 -9.47 6.2 -11 8 C-11.6 11.24 -11.18 12.68 -9.56 15.56 C0.57 25.2 16.89 25.52 30.11 25.45 C32.37 25.44 34.62 25.47 36.88 25.5 C49.11 25.56 63.37 24.46 73 16 C75.43 12.36 75.18 10.94 74.55 6.8 C74.14 4.79 74.14 4.79 72 3.62 C71.01 3.32 71.01 3.32 70 3 C69.5 2.01 69.5 2.01 69 1 C71.97 1.33 74.94 1.66 78 2 C78 2.66 78 3.32 78 4 C77.34 4 76.68 4 76 4 C76.52 4.7 77.03 5.4 77.56 6.12 C79 9 79 9 79.12 11.94 C77.03 17.64 72.24 20.58 66.94 23.19 C55.67 27.64 44.12 28.54 32.12 28.44 C31.43 28.44 30.73 28.44 30.01 28.43 C20.61 28.41 11.86 27.81 2.86 24.88 C-0.3 23.76 -0.3 23.76 -5 24 C-5 28.95 -5 33.9 -5 39 C-5.99 39.49 -5.99 39.49 -7 40 C-7.05 37.4 -7.09 34.79 -7.12 32.19 C-7.14 31.45 -7.16 30.71 -7.18 29.95 C-7.21 26.09 -7.19 24.29 -5 21 C-5.74 20.77 -6.48 20.55 -7.25 20.31 C-10.66 18.68 -12.05 17.24 -14 14 C-14.56 10.5 -14.56 10.5 -14 7 C-10.25 2.29 -6.14 -1.89 0 0 Z " fill="#0D71A7" transform="translate(23,16)"/>
<path d="M0 0 C0.37 6.5 0.37 6.5 -1.22 8.64 C-3.36 10.27 -5.07 10.77 -7.68 11.39 C-8.59 11.6 -9.5 11.82 -10.44 12.04 C-11.38 12.25 -12.33 12.47 -13.31 12.69 C-14.72 13.02 -14.72 13.02 -16.15 13.37 C-20.82 14.45 -25.18 15.42 -30 15 C-31 14 -31 14 -31.19 10.56 C-31 7 -31 7 -29 5 C-26.79 4.42 -26.79 4.42 -24.06 3.96 C-22.6 3.71 -22.6 3.71 -21.1 3.45 C-20.08 3.28 -19.05 3.11 -18 2.94 C-15.98 2.6 -13.96 2.25 -11.94 1.9 C-11.04 1.75 -10.14 1.6 -9.21 1.45 C-1.83 -0.05 -1.83 -0.05 0 0 Z " fill="#0F6195" transform="translate(95,44)"/>
<path d="M0 0 C0 0.99 0 1.98 0 3 C-3.19 3.68 -6.37 4.34 -9.56 5 C-10.46 5.19 -11.35 5.38 -12.28 5.58 C-19.99 7.16 -25.92 8.14 -33 4 C-33 3.01 -33 2.02 -33 1 C-30.94 0.52 -28.88 0.04 -26.81 -0.44 C-25.09 -0.84 -25.09 -0.84 -23.33 -1.25 C-14.55 -3.23 -8.18 -4.09 0 0 Z " fill="#33BAF3" transform="translate(39,4)"/>
<path d="M0 0 C-0.33 0.99 -0.66 1.98 -1 3 C-2.02 3.15 -3.03 3.29 -4.08 3.45 C-13.33 4.91 -20.79 7.31 -29 12 C-30.98 12.99 -30.98 12.99 -33 14 C-33 9.71 -33 5.42 -33 1 C-31.02 1.66 -29.04 2.32 -27 3 C-19.68 3.11 -12.39 1.86 -5.24 0.4 C-3 0 -3 0 0 0 Z " fill="#0F6398" transform="translate(39,7)"/>
<path d="M0 0 C1.15 0.93 2.3 1.87 3.44 2.81 C4.08 3.33 4.71 3.86 5.37 4.39 C7 6 7 6 8 9 C7.84 11.7 7.4 14.32 7 17 C5.35 17.66 3.7 18.32 2 19 C-0.53 15.21 -0.22 12.19 -0.12 7.81 C-0.12 7.06 -0.11 6.31 -0.1 5.54 C-0.07 3.69 -0.04 1.85 0 0 Z " fill="#0BABF6" transform="translate(4,31)"/>
<path d="M0 0 C0.33 0 0.66 0 1 0 C1 1.65 1 3.3 1 5 C1.99 5 2.98 5 4 5 C4 3.68 4 2.36 4 1 C5.98 1 7.96 1 10 1 C10 1.66 10 2.32 10 3 C11.26 2.67 12.52 2.34 13.81 2 C16.39 1.32 18.3 1 21 1 C21 1.66 21 2.32 21 3 C17.81 3.68 14.63 4.34 11.44 5 C10.54 5.19 9.65 5.38 8.72 5.58 C1.01 7.16 -4.92 8.14 -12 4 C-12 3.01 -12 2.02 -12 1 C-10.02 1 -8.04 1 -6 1 C-6.66 1.66 -7.32 2.32 -8 3 C-4.54 4.48 -4.54 4.48 -1 6 C-0.67 4.02 -0.34 2.04 0 0 Z " fill="#0AABF1" transform="translate(18,4)"/>
<path d="M0 0 C0.69 0.19 1.38 0.38 2.1 0.58 C6.88 1.82 11.65 2.47 16.56 3.07 C19.68 3.98 20.53 5.08 22.16 7.83 C15.44 7.37 9.57 5.87 3.18 3.77 C0.51 2.94 -2.09 2.32 -4.84 1.83 C-1.84 -0.17 -1.84 -0.17 0 0 Z " fill="#0F7CB2" transform="translate(77.83984375,11.171875)"/>
<path d="M0 0 C0.66 0.99 1.32 1.98 2 3 C0 5 0 5 -3 5.19 C-6 5 -6 5 -8 4 C-8 3.01 -8 2.02 -8 1 C-5.21 -0.39 -3.08 -0.26 0 0 Z " fill="#079DD6" transform="translate(74,32)"/>
<path d="M0 0 C0.99 0.33 1.98 0.66 3 1 C3 3.97 3 6.94 3 10 C2.01 9.67 1.02 9.34 0 9 C0 6.03 0 3.06 0 0 Z " fill="#0D6598" transform="translate(7,38)"/>
<path d="M0 0 C0 1.65 0 3.3 0 5 C-3.69 4.5 -5.6 3.9 -8 1 C-5.07 0.02 -3.04 -0.08 0 0 Z " fill="#62CBF9" transform="translate(17,5)"/>
<path d="M0 0 C0.33 0 0.66 0 1 0 C1 6.27 1 12.54 1 19 C0.67 19 0.34 19 0 19 C-2.67 6.51 -2.67 6.51 0 0 Z " fill="#2DB1ED" transform="translate(106,26)"/>
<path d="M0 0 C5.75 1.62 5.75 1.62 8 5 C2.25 4.12 2.25 4.12 0 3 C0 2.01 0 1.02 0 0 Z " fill="#35C3F0" transform="translate(92,14)"/>
</svg>
