<?xml version="1.0" encoding="UTF-8"?>
<!-- Generator: visioncortex VTracer 0.6.4 -->
<svg version="1.1" xmlns="http://www.w3.org/2000/svg" width="870" height="1556">
<path d="M0 0 C0.85 0.45 1.7 0.91 2.57 1.38 C4.32 2.32 6.07 3.27 7.8 4.24 C10.85 5.92 13.93 7.53 17.01 9.14 C19.32 10.35 21.63 11.57 23.93 12.79 C30.54 16.28 37.18 19.7 43.81 23.12 C51.83 27.26 59.84 31.41 67.81 35.62 C75.71 39.8 83.63 43.9 91.56 48 C104.16 54.51 116.74 61.06 129.31 67.62 C142.62 74.58 155.93 81.51 169.26 88.41 C177.38 92.62 185.49 96.85 193.6 101.08 C201.08 104.99 208.57 108.87 216.06 112.75 C223.62 116.66 231.16 120.59 238.69 124.56 C246.62 128.75 254.59 132.88 262.56 137 C275.16 143.51 287.74 150.06 300.31 156.62 C313.62 163.58 326.93 170.51 340.26 177.41 C348.38 181.62 356.49 185.85 364.6 190.08 C372.08 193.99 379.57 197.87 387.06 201.75 C394.62 205.66 402.16 209.59 409.69 213.56 C417.62 217.75 425.59 221.88 433.56 226 C446.16 232.51 458.74 239.06 471.31 245.62 C484.62 252.58 497.93 259.51 511.26 266.41 C519.38 270.62 527.49 274.85 535.6 279.08 C543.08 282.99 550.57 286.87 558.06 290.75 C565.62 294.66 573.16 298.59 580.69 302.56 C588.62 306.75 596.59 310.88 604.56 315 C617.16 321.51 629.74 328.06 642.31 334.62 C654.47 340.98 666.63 347.31 678.81 353.62 C691.92 360.42 705.02 367.25 718.11 374.08 C730.46 380.54 742.83 386.97 755.21 393.38 C766.25 399.11 777.28 404.86 788.31 410.62 C788.31 411.94 788.31 413.26 788.31 414.62 C787.65 414.62 786.99 414.62 786.31 414.62 C786.33 415.57 786.33 415.57 786.34 416.53 C787.2 469.77 787.83 523.01 788.36 576.25 C788.37 577.36 788.38 578.46 788.4 579.6 C789.39 679.01 789.58 778.4 789.52 877.81 C789.5 901.34 789.5 924.87 789.5 948.4 C789.49 1009.95 789.46 1071.51 789.44 1133.06 C789.4 1271.19 789.36 1409.31 789.31 1551.62 C502.21 1551.62 215.11 1551.62 -80.69 1551.62 C-80.69 1046.07 -80.69 540.5 -80.69 19.62 C-73.1 16.32 -65.51 13.02 -57.69 9.62 C-54.65 8.29 -51.62 6.96 -48.5 5.59 C-44.26 3.77 -44.26 3.77 -42.2 2.89 C-40.79 2.29 -39.4 1.68 -38.01 1.06 C-24.89 -4.77 -13.17 -7.57 0 0 Z " fill="#4BD6FD" transform="translate(80.6875,4.375)"/>
<path d="M0 0 C0.85 0.45 1.7 0.91 2.57 1.38 C4.32 2.32 6.07 3.27 7.8 4.24 C10.85 5.92 13.93 7.53 17.01 9.14 C19.32 10.35 21.63 11.57 23.93 12.79 C30.54 16.28 37.18 19.7 43.81 23.12 C51.83 27.26 59.84 31.41 67.81 35.62 C75.71 39.8 83.63 43.9 91.56 48 C104.16 54.51 116.74 61.06 129.31 67.62 C142.62 74.58 155.93 81.51 169.26 88.41 C177.38 92.62 185.49 96.85 193.6 101.08 C201.08 104.99 208.57 108.87 216.06 112.75 C223.62 116.66 231.16 120.59 238.69 124.56 C246.62 128.75 254.59 132.88 262.56 137 C275.16 143.51 287.74 150.06 300.31 156.62 C313.62 163.58 326.93 170.51 340.26 177.41 C348.38 181.62 356.49 185.85 364.6 190.08 C372.08 193.99 379.57 197.87 387.06 201.75 C394.62 205.66 402.16 209.59 409.69 213.56 C417.62 217.75 425.59 221.88 433.56 226 C446.16 232.51 458.74 239.06 471.31 245.62 C484.62 252.58 497.93 259.51 511.26 266.41 C519.38 270.62 527.49 274.85 535.6 279.08 C543.08 282.99 550.57 286.87 558.06 290.75 C565.62 294.66 573.16 298.59 580.69 302.56 C588.62 306.75 596.59 310.88 604.56 315 C617.16 321.51 629.74 328.06 642.31 334.62 C654.47 340.98 666.63 347.31 678.81 353.62 C691.92 360.42 705.02 367.25 718.11 374.08 C730.46 380.54 742.83 386.97 755.21 393.38 C766.25 399.11 777.28 404.86 788.31 410.62 C788.31 411.94 788.31 413.26 788.31 414.62 C787.65 414.62 786.99 414.62 786.31 414.62 C786.33 415.57 786.33 415.57 786.34 416.53 C787.2 469.77 787.83 523.01 788.36 576.25 C788.37 577.36 788.38 578.46 788.4 579.6 C789.39 678.76 789.58 777.92 789.52 877.09 C789.51 893.36 789.5 909.63 789.5 925.9 C789.5 927.08 789.5 928.26 789.5 929.48 C789.5 935.49 789.5 941.5 789.5 947.51 C789.5 989.33 789.48 1031.14 789.46 1072.95 C789.44 1113.4 789.43 1153.84 789.42 1194.28 C789.42 1195.54 789.42 1196.81 789.42 1198.11 C789.42 1210.79 789.42 1223.47 789.41 1236.16 C789.41 1261.96 789.4 1287.76 789.4 1313.56 C789.4 1314.75 789.4 1315.93 789.4 1317.15 C789.38 1395.31 789.35 1473.47 789.31 1551.62 C771.82 1551.62 754.33 1551.62 736.31 1551.62 C735.7 1493.81 735.22 1435.99 735.11 1378.17 C735.11 1377.5 735.1 1376.83 735.1 1376.15 C735.07 1358.54 735.04 1340.93 735.02 1323.32 C735 1312.71 734.98 1302.1 734.97 1291.49 C734.96 1290.71 734.96 1289.94 734.96 1289.14 C734.96 1285.99 734.95 1282.84 734.95 1279.68 C734.89 1248.45 734.84 1217.22 734.8 1185.99 C734.79 1181.75 734.79 1177.52 734.78 1173.29 C734.78 1172.45 734.78 1171.61 734.78 1170.74 C734.75 1152.82 734.72 1134.9 734.69 1116.98 C734.56 1033.16 734.44 949.33 734.31 443.62 C733.55 443.32 732.79 443.02 732 442.72 C728.89 441.46 725.93 440 722.93 438.5 C722.32 438.19 721.7 437.89 721.07 437.57 C719.77 436.92 718.46 436.27 717.16 435.61 C715.24 434.65 713.32 433.7 711.4 432.74 C703.43 428.76 695.53 424.65 687.65 420.49 C679.48 416.17 671.25 411.96 663.02 407.75 C658.53 405.47 654.05 403.17 649.57 400.88 C648.24 400.2 648.24 400.2 646.88 399.5 C638.19 395.06 629.52 390.57 620.85 386.08 C611.93 381.46 603 376.85 594.06 372.25 C593.37 371.9 592.69 371.54 591.98 371.18 C588.48 369.38 584.99 367.58 581.5 365.78 C573.92 361.88 566.34 357.97 558.76 354.07 C556.7 353 554.64 351.94 552.58 350.88 C551.9 350.53 551.22 350.18 550.52 349.82 C546.35 347.68 542.19 345.53 538.02 343.39 C524.32 336.33 510.62 329.27 496.94 322.19 C486.32 316.69 475.69 311.22 465.06 305.75 C464.33 305.37 463.6 305 462.84 304.61 C459.87 303.08 456.9 301.56 453.94 300.03 C446.1 296 438.27 291.97 430.44 287.94 C429.75 287.59 429.07 287.23 428.37 286.87 C418.88 281.99 409.41 277.09 399.94 272.19 C389.32 266.69 378.69 261.22 368.06 255.75 C366.96 255.18 366.96 255.18 365.84 254.61 C362.87 253.08 359.9 251.56 356.94 250.03 C349.1 246 341.27 241.97 333.44 237.94 C332.75 237.59 332.07 237.23 331.37 236.87 C321.88 231.99 312.41 227.09 302.94 222.19 C292.32 216.69 281.69 211.22 271.06 205.75 C269.96 205.18 269.96 205.18 268.84 204.61 C265.87 203.08 262.9 201.56 259.94 200.03 C252.1 196 244.27 191.97 236.44 187.94 C235.75 187.59 235.07 187.23 234.37 186.87 C223.71 181.38 213.05 175.87 202.4 170.36 C192.13 165.04 181.85 159.76 171.56 154.47 C161.64 149.37 151.72 144.26 141.81 139.12 C131.24 133.65 120.65 128.19 110.06 122.75 C109.33 122.37 108.6 122 107.84 121.61 C104.87 120.08 101.9 118.56 98.94 117.03 C91.1 113 83.27 108.97 75.44 104.94 C74.75 104.59 74.07 104.23 73.37 103.87 C63.88 98.99 54.41 94.09 44.94 89.19 C34.32 83.69 23.69 78.22 13.06 72.75 C12.33 72.37 11.6 72 10.84 71.61 C7.87 70.08 4.9 68.56 1.94 67.03 C-5.9 63 -13.73 58.97 -21.56 54.94 C-22.24 54.59 -22.92 54.24 -23.61 53.88 C-30.98 50.09 -38.35 46.29 -45.71 42.47 C-46.36 42.14 -47.01 41.8 -47.68 41.45 C-50.73 39.87 -53.78 38.29 -56.83 36.71 C-64.74 32.6 -72.7 28.59 -80.69 24.62 C-80.69 22.98 -80.69 21.32 -80.69 19.62 C-74.31 16.8 -67.91 14.02 -61.49 11.27 C-58.82 10.12 -56.15 8.95 -53.49 7.78 C-49.78 6.15 -46.07 4.54 -42.35 2.96 C-40.88 2.33 -39.42 1.69 -37.97 1.04 C-24.87 -4.78 -13.15 -7.55 0 0 Z " fill="#00A1FE" transform="translate(80.6875,4.375)"/>
<path d="M0 0 C4.85 1.48 9.21 3.47 13.72 5.74 C14.47 6.11 15.22 6.49 16 6.87 C18.47 8.11 20.95 9.35 23.42 10.59 C25.16 11.46 26.9 12.33 28.64 13.2 C32.29 15.03 35.94 16.86 39.59 18.69 C44.21 21.01 48.83 23.32 53.46 25.64 C57.06 27.44 60.66 29.24 64.26 31.04 C65.96 31.89 67.66 32.75 69.36 33.6 C77.98 37.91 86.56 42.28 95.08 46.79 C105.75 52.44 116.54 57.83 127.35 63.21 C130.97 65.01 134.58 66.82 138.19 68.62 C145.84 72.44 153.48 76.25 161.12 80.06 C169.45 84.21 177.77 88.36 186.09 92.52 C189.09 94.02 192.1 95.52 195.1 97.01 C198.43 98.67 201.76 100.33 205.09 102 C206.09 102.49 207.08 102.99 208.11 103.5 C209.01 103.95 209.9 104.4 210.83 104.86 C211.62 105.25 212.4 105.64 213.21 106.05 C215 107 215 107 216 108 C216.1 111.06 216.13 114.1 216.12 117.16 C216.12 118.61 216.12 118.61 216.12 120.1 C216.12 123.39 216.12 126.68 216.11 129.96 C216.11 132.31 216.11 134.65 216.11 137 C216.11 143.38 216.11 149.77 216.1 156.16 C216.1 162.15 216.09 168.15 216.09 174.14 C216.09 186.01 216.08 197.89 216.08 209.76 C216.07 221.3 216.06 232.83 216.05 244.37 C216.05 245.08 216.05 245.79 216.05 246.52 C216.05 250.09 216.05 253.65 216.05 257.22 C216.04 286.81 216.02 316.41 216 346 C212.94 344.56 209.89 343.11 206.83 341.67 C205.97 341.26 205.11 340.86 204.22 340.44 C198.59 337.78 193.03 335.03 187.55 332.07 C185.97 331.23 184.39 330.39 182.8 329.54 C182.01 329.12 181.22 328.7 180.41 328.27 C176.35 326.13 172.28 324.04 168.2 321.96 C167.38 321.54 166.56 321.12 165.72 320.69 C164.05 319.84 162.38 318.98 160.7 318.13 C156.22 315.84 151.73 313.54 147.25 311.25 C146.36 310.8 145.48 310.34 144.56 309.87 C135.92 305.45 127.31 301 118.69 296.53 C109.3 291.67 99.9 286.83 90.5 282 C80.26 276.74 70.02 271.47 59.79 266.17 C58.02 265.26 56.25 264.35 54.49 263.44 C49.06 260.63 43.63 257.81 38.21 254.97 C35.69 253.65 33.16 252.33 30.63 251.01 C28.85 250.08 27.07 249.15 25.3 248.21 C24.24 247.66 23.18 247.11 22.08 246.54 C21.15 246.04 20.21 245.55 19.25 245.05 C17.11 243.86 17.11 243.86 15 244 C14.67 166.45 14.34 88.9 14 9 C9.71 6.69 5.42 4.38 1 2 C0.67 1.34 0.34 0.68 0 0 Z " fill="#C9EEFC" transform="translate(418,429)"/>
<path d="M0 0 C4.23 1.31 8.03 2.92 11.95 4.98 C13.09 5.58 14.24 6.18 15.41 6.8 C16.02 7.11 16.62 7.43 17.24 7.76 C20.5 9.47 23.76 11.16 27.02 12.86 C27.69 13.21 28.36 13.56 29.05 13.92 C39.68 19.44 50.42 24.76 61.14 30.11 C64.31 31.69 67.48 33.27 70.65 34.85 C78.64 38.84 86.63 42.83 94.62 46.81 C103.3 51.14 111.97 55.47 120.65 59.8 C123.77 61.36 126.9 62.92 130.02 64.47 C144.1 71.49 158.11 78.61 172 86 C177.61 88.97 183.22 91.94 189 95 C189 173.54 189 252.08 189 333 C167.45 322.79 167.45 322.79 158.12 317.88 C155.81 316.67 153.5 315.46 151.18 314.25 C150.55 313.92 149.93 313.6 149.28 313.26 C139.97 308.41 130.61 303.65 121.25 298.88 C117.34 296.88 113.42 294.88 109.51 292.88 C108.54 292.38 107.57 291.89 106.57 291.38 C93.12 284.51 79.68 277.61 66.25 270.72 C61.24 268.15 56.22 265.58 51.2 263.01 C47.72 261.23 44.24 259.44 40.76 257.66 C39.13 256.82 37.5 255.99 35.87 255.16 C34.72 254.57 34.72 254.57 33.55 253.97 C32.89 253.63 32.23 253.3 31.55 252.95 C24.33 249.24 17.12 245.5 9.94 241.71 C9.07 241.25 8.21 240.8 7.31 240.33 C5.21 239.22 3.1 238.11 1 237 C-0.04 188.86 -0.13 140.74 -0.07 92.59 C-0.06 82.46 -0.06 72.33 -0.05 62.2 C-0.04 41.46 -0.02 20.73 0 0 Z " fill="#C9EEFC" transform="translate(210,324)"/>
<path d="M0 0 C4.12 1.34 7.93 2.84 11.8 4.79 C12.86 5.32 13.92 5.85 15.01 6.39 C16.1 6.94 17.19 7.49 18.31 8.06 C19.42 8.62 20.53 9.17 21.67 9.74 C29.86 13.86 29.86 13.86 31 15 C31.11 17.11 31.15 19.23 31.16 21.35 C31.17 22.35 31.17 22.35 31.17 23.38 C31.19 25.65 31.2 27.92 31.21 30.19 C31.21 31.82 31.22 33.44 31.24 35.07 C31.26 39.51 31.28 43.95 31.3 48.4 C31.33 53.1 31.35 57.81 31.38 62.52 C31.42 70.49 31.46 78.47 31.5 86.44 C31.55 96.46 31.6 106.49 31.66 116.51 C31.91 161.68 32.08 206.84 32 252 C32.74 252.29 33.49 252.58 34.25 252.88 C36.54 253.81 38.73 254.8 40.94 255.9 C41.68 256.27 42.42 256.64 43.18 257.02 C43.97 257.42 44.76 257.81 45.57 258.22 C46.82 258.84 46.82 258.84 48.1 259.48 C49.88 260.37 51.65 261.26 53.42 262.15 C56.07 263.47 58.71 264.79 61.36 266.11 C70.82 270.84 80.23 275.67 89.58 280.62 C95.02 283.49 100.48 286.29 106 289 C112.51 292.23 118.96 295.53 125.38 298.94 C132.2 302.56 139.08 306.06 146 309.5 C153.71 313.33 161.35 317.26 168.96 321.3 C174.6 324.29 180.28 327.16 186 330 C192.85 333.4 199.67 336.88 206.44 340.44 C207.22 340.85 208.01 341.26 208.82 341.69 C210.27 342.45 211.7 343.23 213.13 344.02 C215.15 345.13 215.15 345.13 218.02 346.15 C220.5 348.47 220.35 349.34 220.49 352.67 C220.46 354.51 220.4 356.35 220.31 358.19 C220.28 359.6 220.28 359.6 220.24 361.04 C220.19 363.36 220.1 365.68 220 368 C215.3 366.57 211.04 364.62 206.71 362.36 C206.01 362 205.32 361.64 204.6 361.27 C202.34 360.1 200.07 358.93 197.81 357.75 C196.23 356.93 194.64 356.11 193.06 355.29 C189.1 353.24 185.14 351.19 181.18 349.13 C178.03 347.49 174.87 345.86 171.71 344.22 C167.33 341.96 162.96 339.69 158.59 337.42 C151.61 333.8 144.62 330.18 137.62 326.56 C137.02 326.25 136.42 325.94 135.8 325.62 C132.75 324.04 129.7 322.47 126.66 320.89 C120 317.45 113.35 314.01 106.69 310.56 C104.88 309.63 103.07 308.69 101.26 307.75 C100.66 307.44 100.06 307.14 99.45 306.82 C95.19 304.62 90.94 302.42 86.68 300.21 C80.05 296.79 73.42 293.36 66.79 289.93 C65.59 289.31 64.4 288.69 63.2 288.07 C48.44 280.43 33.7 272.76 19 265 C19 271.27 19 277.54 19 284 C25.44 287.47 25.44 287.47 32 291 C32.01 293.07 32.02 295.14 32.03 297.27 C32.13 316.88 32.23 336.49 32.34 356.1 C32.39 366.17 32.45 376.25 32.5 386.33 C32.54 395.13 32.59 403.93 32.64 412.72 C32.66 417.37 32.69 422.02 32.71 426.66 C32.8 447.13 33.04 467.55 34 488 C38.33 490.17 38.33 490.17 42.66 492.33 C47.13 494.56 51.59 496.8 56.04 499.04 C67.21 504.65 78.4 510.19 89.69 515.56 C98.61 519.8 107.49 524.12 116.38 528.44 C127.43 533.81 138.49 539.17 149.57 544.47 C158.93 548.96 168.28 553.49 177.61 558.03 C184.92 561.58 192.23 565.12 199.55 568.62 C201.29 569.45 201.29 569.45 203.06 570.29 C205.21 571.32 207.37 572.35 209.53 573.37 C210.47 573.82 211.42 574.28 212.4 574.74 C213.22 575.13 214.04 575.52 214.89 575.93 C217 577 217 577 220 579 C220.34 581.06 220.34 581.06 220.29 583.57 C220.28 584.47 220.27 585.36 220.26 586.29 C220.24 587.22 220.21 588.16 220.19 589.12 C220.17 590.07 220.16 591.01 220.15 591.99 C220.11 594.33 220.06 596.66 220 599 C221.65 599.66 223.3 600.32 225 601 C228.96 603.31 232.92 605.62 237 608 C237.5 503.06 237.5 503.06 238 396 C244 398 244 398 254 403 C254 466.69 254 530.38 254 596 C255.65 596.33 257.3 596.66 259 597 C260.67 597.72 262.31 598.51 263.93 599.34 C264.88 599.82 265.82 600.3 266.8 600.79 C268.32 601.58 268.32 601.58 269.88 602.38 C272.06 603.48 274.25 604.59 276.43 605.7 C278.09 606.53 278.09 606.53 279.78 607.39 C284.47 609.74 289.2 612 293.94 614.25 C303.44 618.77 312.91 623.34 322.38 627.94 C332.03 632.63 341.69 637.3 351.38 641.94 C360.6 646.35 369.8 650.81 378.99 655.28 C381.24 656.37 383.49 657.46 385.74 658.56 C398.08 664.55 398.08 664.55 403.2 667.05 C406.5 668.65 409.79 670.25 413.09 671.85 C414.87 672.72 416.64 673.58 418.41 674.45 C424.63 677.46 430.88 680.24 437.27 682.86 C441 684.42 444.6 686.14 448.19 688 C448.84 688.32 449.49 688.63 450.17 688.96 C452.04 689.94 452.04 689.94 455 692 C455.94 695.29 456.17 698.55 456.32 701.96 C456.36 702.9 456.4 703.84 456.44 704.81 C456.5 706.3 456.5 706.3 456.56 707.81 C456.6 708.83 456.65 709.85 456.69 710.89 C457.02 719.27 457.11 727.62 457 736 C451.12 734.3 445.85 731.55 440.4 728.81 C439.35 728.28 438.29 727.75 437.2 727.2 C434.31 725.76 431.42 724.3 428.53 722.85 C425.48 721.32 422.43 719.79 419.38 718.26 C413.58 715.36 407.78 712.45 401.99 709.54 C391.68 704.36 381.37 699.19 371.05 694.02 C366.88 691.93 362.7 689.83 358.53 687.73 C356.28 686.61 354.04 685.48 351.8 684.36 C350.84 683.88 349.89 683.4 348.9 682.9 C343.13 680.01 337.33 677.2 331.5 674.43 C316.51 667.3 301.65 659.9 286.8 652.46 C282.96 650.55 279.13 648.63 275.29 646.71 C267.82 642.98 260.35 639.24 252.88 635.51 C246.81 632.47 240.74 629.44 234.67 626.4 C233.8 625.97 232.94 625.53 232.04 625.09 C230.28 624.21 228.51 623.32 226.75 622.44 C210.29 614.21 193.82 605.98 177.36 597.74 C163.23 590.68 149.1 583.61 134.97 576.55 C118.52 568.33 102.08 560.11 85.64 551.88 C83.88 551.01 82.13 550.13 80.38 549.26 C79.52 548.83 78.66 548.4 77.78 547.95 C71.7 544.92 65.63 541.88 59.55 538.85 C52.17 535.16 44.79 531.46 37.41 527.77 C33.64 525.89 29.87 524 26.11 522.12 C22.66 520.4 19.22 518.68 15.78 516.95 C14.53 516.33 13.28 515.7 12.03 515.08 C10.34 514.24 8.65 513.39 6.96 512.54 C6.02 512.07 5.08 511.6 4.11 511.12 C2 510 2 510 1 509 C0.89 507.08 0.85 505.16 0.84 503.23 C0.83 501.97 0.82 500.7 0.81 499.39 C0.81 497.97 0.8 496.54 0.79 495.11 C0.79 493.6 0.78 492.09 0.76 490.58 C0.74 486.37 0.72 482.16 0.7 477.96 C0.68 474.29 0.66 470.63 0.64 466.96 C0.57 455.68 0.52 444.4 0.47 433.12 C0.44 427.67 0.42 422.23 0.39 416.79 C-0.05 328.12 -0.08 239.46 0 0 Z " fill="#0090FE" transform="translate(179,309)"/>
<path d="M0 0 C4.13 1.38 7.37 2.58 11.12 4.55 C12.62 5.34 12.62 5.34 14.14 6.14 C15.23 6.71 16.32 7.28 17.44 7.88 C19.87 9.15 22.31 10.42 24.75 11.7 C25.4 12.04 26.05 12.38 26.72 12.73 C35.12 17.12 43.56 21.43 52 25.75 C55.36 27.47 58.73 29.2 62.09 30.92 C62.93 31.35 63.76 31.78 64.62 32.22 C72.92 36.47 81.21 40.73 89.5 45 C101 50.92 112.51 56.83 124.03 62.73 C178.86 90.84 178.86 90.84 192.62 98.06 C193.39 98.46 194.15 98.86 194.94 99.27 C199.88 101.88 199.88 101.88 201 103 C201.1 105.38 201.13 107.73 201.12 110.11 C201.12 111.23 201.12 111.23 201.12 112.39 C201.12 114.92 201.12 117.46 201.11 120 C201.11 121.82 201.11 123.63 201.11 125.44 C201.11 130.38 201.11 135.32 201.1 140.26 C201.1 145.41 201.09 150.57 201.09 155.72 C201.09 165.49 201.08 175.25 201.07 185.02 C201.06 196.14 201.06 207.26 201.05 218.37 C201.04 241.25 201.02 264.12 201 287 C196.22 286.31 192.95 285.1 188.75 282.69 C185.04 280.56 181.47 278.75 177.48 277.22 C171.73 274.95 166.22 272.27 160.68 269.53 C159.61 269 158.55 268.48 157.45 267.94 C154.07 266.28 150.69 264.61 147.31 262.94 C142.89 260.76 138.47 258.58 134.05 256.4 C132.96 255.86 131.87 255.33 130.74 254.77 C121.62 250.29 112.46 245.89 103.28 241.52 C96.42 238.25 89.58 234.92 82.74 231.59 C71 225.87 59.25 220.18 47.47 214.55 C41.41 211.64 35.35 208.72 29.3 205.78 C28.55 205.41 27.81 205.05 27.03 204.67 C23.32 202.87 19.61 201.06 15.9 199.25 C14.54 198.59 13.19 197.93 11.83 197.27 C10.9 196.82 10.9 196.82 9.96 196.36 C6.67 194.76 3.4 193.36 0 192 C0 128.64 0 65.28 0 0 Z " fill="#C9EEFC" transform="translate(433,713)"/>
<path d="M0 0 C3.53 1.16 6.91 2.33 10.24 4 C11.4 4.58 11.4 4.58 12.6 5.17 C13.42 5.59 14.25 6.01 15.11 6.44 C15.98 6.88 16.86 7.32 17.77 7.77 C19.63 8.7 21.49 9.64 23.35 10.57 C26.13 11.97 28.91 13.36 31.69 14.75 C41.26 19.55 50.77 24.43 60.22 29.44 C67.1 33.07 74.05 36.57 81.02 40.02 C90.95 44.94 100.84 49.91 110.62 55.13 C118.34 59.23 126.17 63.11 134 67 C145.75 72.85 157.42 78.82 169 85 C174.61 87.97 180.22 90.94 186 94 C186 157.36 186 220.72 186 286 C182.22 284.74 179.04 283.65 175.55 281.93 C174.73 281.52 173.9 281.12 173.05 280.7 C171.73 280.05 171.73 280.05 170.38 279.38 C169.45 278.92 168.52 278.47 167.57 278 C165.59 277.03 163.61 276.05 161.63 275.08 C156.49 272.54 151.35 270.02 146.21 267.5 C145.21 267.01 144.21 266.52 143.18 266.01 C136.39 262.68 129.58 259.37 122.75 256.12 C113.69 251.82 104.65 247.45 95.62 243.06 C84.99 237.9 74.35 232.76 63.69 227.66 C57.54 224.71 51.4 221.74 45.27 218.76 C44.51 218.39 43.74 218.02 42.96 217.63 C39.19 215.8 35.43 213.97 31.67 212.14 C30.26 211.45 28.85 210.76 27.44 210.08 C26.75 209.74 26.07 209.41 25.36 209.07 C19.36 206.16 13.32 203.32 7.27 200.51 C2.11 198.11 2.11 198.11 1 197 C0.84 195.32 0.75 193.64 0.69 191.95 C0.65 190.85 0.6 189.75 0.56 188.62 C0.52 187.39 0.48 186.17 0.44 184.91 C0.4 183.62 0.36 182.33 0.32 181.01 C-0.19 164.39 -0.13 147.76 -0.1 131.14 C-0.1 126.5 -0.09 121.87 -0.09 117.24 C-0.09 108.52 -0.08 99.81 -0.07 91.09 C-0.06 81.14 -0.06 71.19 -0.05 61.25 C-0.04 40.83 -0.02 20.42 0 0 Z " fill="#C9EEFD" transform="translate(212,601)"/>
<path d="M0 0 C4.53 0.61 8.49 1.78 12.75 3.44 C13.88 3.87 15.01 4.3 16.17 4.75 C19 6 19 6 21 8 C21.19 10.4 21.19 10.4 21.14 13.38 C21.17 15.01 21.17 15.01 21.2 16.67 C21.23 18.95 21.22 21.23 21.16 23.51 C21.15 27.36 21.15 27.36 23 33 C27.62 35.64 32.24 38.28 37 41 C37.33 118.22 37.66 195.44 38 275 C43.61 277.64 49.22 280.28 55 283 C58.13 284.59 61.23 286.19 64.31 287.86 C65.91 288.71 67.52 289.56 69.12 290.42 C69.92 290.84 70.73 291.27 71.55 291.71 C75.64 293.87 79.76 295.97 83.88 298.08 C84.7 298.5 85.52 298.92 86.36 299.35 C88.05 300.21 89.73 301.07 91.41 301.93 C95.9 304.22 100.39 306.52 104.88 308.82 C105.77 309.27 106.65 309.72 107.56 310.19 C114.68 313.83 121.78 317.5 128.88 321.19 C138.95 326.42 149.03 331.62 159.12 336.81 C159.86 337.19 160.6 337.57 161.36 337.96 C164.34 339.5 167.33 341.03 170.32 342.56 C178.21 346.62 186.11 350.68 194 354.75 C194.68 355.1 195.35 355.45 196.05 355.8 C209.71 362.84 223.36 369.92 237 377 C237.33 369.41 237.66 361.82 238 354 C238.33 354 238.66 354 239 354 C239.01 354.55 239.02 355.1 239.03 355.66 C239.14 361.36 239.25 367.05 239.37 372.74 C239.42 374.87 239.46 377 239.5 379.13 C239.55 382.18 239.62 385.23 239.68 388.28 C239.71 389.71 239.71 389.71 239.73 391.18 C239.75 392.06 239.77 392.94 239.79 393.85 C239.82 395.02 239.82 395.02 239.84 396.21 C239.81 398.02 239.81 398.02 241 399 C241.09 400.56 241.11 402.13 241.1 403.69 C241.09 404.64 241.09 405.58 241.09 406.55 C241.08 407.55 241.07 408.54 241.06 409.56 C241.06 410.56 241.05 411.56 241.05 412.58 C241.04 415.06 241.02 417.53 241 420 C240.34 420 239.68 420 239 420 C239 480.72 239 541.44 239 604 C238.01 603.67 237.02 603.34 236 603 C236.66 603 237.32 603 238 603 C237.5 511.92 237.5 511.92 237 419 C211.94 406.09 211.94 406.09 186.88 393.19 C186.18 392.83 185.48 392.47 184.77 392.1 C172.19 385.64 159.61 379.18 147.02 372.73 C134.8 366.46 122.57 360.18 110.36 353.9 C97.88 347.48 85.41 341.08 72.92 334.68 C59.58 327.84 46.25 320.99 32.93 314.11 C32.27 313.78 31.61 313.44 30.93 313.09 C29.17 312.18 27.4 311.27 25.64 310.36 C24.1 309.56 22.55 308.78 21 308 C21 309.45 21 309.45 21 310.92 C21.03 334.49 21.04 358.06 21.05 381.62 C21.06 393.02 21.06 404.42 21.08 415.81 C21.09 425.75 21.09 435.7 21.09 445.64 C21.1 450.89 21.1 456.15 21.11 461.41 C21.11 466.37 21.11 471.34 21.11 476.3 C21.11 478.11 21.12 479.91 21.12 481.72 C21.15 494.51 20.7 507.23 20 520 C19.24 519.69 18.48 519.38 17.69 519.06 C15.79 518.31 13.86 517.62 11.92 516.98 C8.17 515.38 5.87 513.94 3 511 C2.14 507.99 2.15 505.07 2.15 501.96 C2.12 500.63 2.12 500.63 2.09 499.28 C2.03 496.52 2.01 493.76 2 491 C1.97 489.36 1.94 487.73 1.91 486.09 C1.83 481.06 1.81 476.04 1.79 471.01 C1.79 469.11 1.78 467.2 1.76 465.3 C1.74 460.2 1.72 455.1 1.7 450 C1.67 444.64 1.65 439.29 1.62 433.93 C1.57 423.82 1.53 413.71 1.48 403.6 C1.43 392.08 1.38 380.55 1.32 369.03 C1.21 345.35 1.1 321.68 1 298 C0.02 297.51 -0.96 297.02 -1.97 296.52 C-5.65 294.69 -9.32 292.85 -13 291.01 C-14.58 290.22 -16.16 289.43 -17.75 288.65 C-34.45 280.32 -34.45 280.32 -42.62 275.94 C-51.71 271.09 -60.92 266.52 -70.13 261.94 C-78.69 257.68 -87.19 253.37 -95.62 248.87 C-104.04 244.4 -112.6 240.19 -121.13 235.94 C-129.01 232.02 -136.86 228.07 -144.62 223.94 C-157.64 217.08 -170.84 210.58 -184 204 C-183.67 268.68 -183.34 333.36 -183 400 C-183.33 400 -183.66 400 -184 400 C-185 378.64 -185.21 357.31 -185.3 335.93 C-185.33 331.24 -185.35 326.55 -185.38 321.86 C-185.43 313.02 -185.47 304.18 -185.52 295.34 C-185.57 285.26 -185.62 275.18 -185.68 265.09 C-185.79 244.4 -185.9 223.7 -186 203 C-192.44 199.53 -192.44 199.53 -199 196 C-199 189.4 -199 182.8 -199 176 C-192.62 179.19 -192.62 179.19 -190.35 180.33 C-185.84 182.58 -181.33 184.83 -176.82 187.07 C-166.4 192.26 -156.01 197.46 -145.74 202.92 C-137.86 207.1 -129.93 211.17 -122 215.25 C-119.12 216.73 -116.24 218.21 -113.36 219.7 C-112.65 220.06 -111.94 220.43 -111.21 220.8 C-104.55 224.23 -97.9 227.67 -91.25 231.12 C-82.04 235.9 -72.84 240.67 -63.62 245.44 C-62.41 246.06 -61.2 246.69 -59.99 247.32 C-54.46 250.18 -48.93 253.04 -43.4 255.89 C-40.91 257.18 -38.41 258.47 -35.92 259.76 C-34.23 260.63 -32.54 261.5 -30.86 262.37 C-23.24 266.31 -15.63 270.28 -8.03 274.25 C-6.96 274.8 -5.9 275.35 -4.81 275.93 C-2.2 277.28 0.4 278.64 3 280 C2.92 247.17 2.83 214.33 2.72 181.5 C2.71 177.63 2.69 173.75 2.68 169.88 C2.68 169.11 2.68 168.34 2.68 167.54 C2.64 155.05 2.6 142.55 2.57 130.05 C2.54 117.23 2.5 104.42 2.46 91.6 C2.43 83.68 2.41 75.77 2.39 67.86 C2.38 61.8 2.36 55.74 2.33 49.68 C2.32 47.19 2.32 44.69 2.32 42.2 C2.31 38.81 2.3 35.42 2.28 32.04 C2.28 30.54 2.28 30.54 2.28 29.01 C2.28 28.11 2.27 27.21 2.26 26.28 C2.26 25.49 2.26 24.71 2.25 23.9 C2.16 21.76 2.16 21.76 0 20 C0.66 20 1.32 20 2 20 C1.78 18.71 1.78 18.71 1.56 17.4 C0.61 11.54 -0.28 5.94 0 0 Z " fill="#54D7FC" transform="translate(396,397)"/>
<path d="M0 0 C4.12 1.34 7.93 2.84 11.8 4.79 C12.86 5.32 13.92 5.85 15.01 6.39 C16.1 6.94 17.19 7.49 18.31 8.06 C19.42 8.62 20.53 9.17 21.67 9.74 C29.86 13.86 29.86 13.86 31 15 C31.11 17.11 31.15 19.23 31.16 21.35 C31.17 22.35 31.17 22.35 31.17 23.38 C31.19 25.65 31.2 27.92 31.21 30.19 C31.21 31.82 31.22 33.44 31.24 35.07 C31.26 39.51 31.28 43.95 31.3 48.4 C31.33 53.1 31.35 57.81 31.38 62.52 C31.42 70.49 31.46 78.47 31.5 86.44 C31.55 96.46 31.6 106.49 31.66 116.51 C31.91 161.68 32.08 206.84 32 252 C32.74 252.29 33.49 252.58 34.25 252.88 C36.54 253.81 38.73 254.8 40.94 255.9 C41.68 256.27 42.42 256.64 43.18 257.02 C43.97 257.42 44.76 257.81 45.57 258.22 C46.82 258.84 46.82 258.84 48.1 259.48 C49.88 260.37 51.65 261.26 53.42 262.15 C56.07 263.47 58.71 264.79 61.36 266.11 C70.82 270.84 80.23 275.67 89.58 280.62 C95.02 283.49 100.48 286.29 106 289 C112.51 292.23 118.96 295.53 125.38 298.94 C132.2 302.56 139.08 306.06 146 309.5 C153.71 313.33 161.35 317.26 168.96 321.3 C174.6 324.29 180.28 327.16 186 330 C192.85 333.4 199.67 336.88 206.44 340.44 C207.22 340.85 208.01 341.26 208.82 341.69 C210.27 342.45 211.7 343.23 213.13 344.02 C215.15 345.13 215.15 345.13 218.02 346.15 C220.5 348.47 220.35 349.34 220.49 352.67 C220.46 354.51 220.4 356.35 220.31 358.19 C220.28 359.6 220.28 359.6 220.24 361.04 C220.19 363.36 220.1 365.68 220 368 C215.3 366.57 211.04 364.62 206.71 362.36 C206.01 362 205.32 361.64 204.6 361.27 C202.34 360.1 200.07 358.93 197.81 357.75 C196.23 356.93 194.64 356.11 193.06 355.29 C189.1 353.24 185.14 351.19 181.18 349.13 C178.03 347.49 174.87 345.86 171.71 344.22 C167.33 341.96 162.96 339.69 158.59 337.42 C151.61 333.8 144.62 330.18 137.62 326.56 C137.02 326.25 136.42 325.94 135.8 325.62 C132.75 324.04 129.7 322.47 126.66 320.89 C120 317.45 113.35 314.01 106.69 310.56 C104.88 309.63 103.07 308.69 101.26 307.75 C100.66 307.44 100.06 307.14 99.45 306.82 C95.19 304.62 90.94 302.42 86.68 300.21 C80.05 296.79 73.42 293.36 66.79 289.93 C65.59 289.31 64.4 288.69 63.2 288.07 C48.44 280.43 33.7 272.76 19 265 C19 271.27 19 277.54 19 284 C25.44 287.47 25.44 287.47 32 291 C32.51 316.7 32.9 342.41 33.14 368.11 C33.25 380.05 33.41 391.99 33.66 403.92 C33.88 414.33 34.02 424.74 34.07 435.15 C34.1 440.65 34.17 446.16 34.33 451.67 C35.26 485.11 35.26 485.11 29.88 493.18 C24.87 498.03 19.32 500.76 12.77 503 C8.58 504.52 4.82 506.72 1 509 C0.81 481.54 0.65 454.08 0.5 426.62 C0.49 425.55 0.49 424.48 0.48 423.37 C-0.01 334.26 -0.09 245.15 -0.06 142.94 C-0.06 140.3 -0.06 137.67 -0.06 135.03 C-0.05 90.02 -0.03 45.01 0 0 Z " fill="#0044DA" transform="translate(179,309)"/>
<path d="M0 0 C5.54 2.21 10.77 5.14 16 8 C16.33 85.22 16.66 162.44 17 242 C22.61 244.64 28.22 247.28 34 250 C37.13 251.59 40.23 253.19 43.31 254.86 C44.91 255.71 46.52 256.56 48.12 257.42 C49.33 258.06 49.33 258.06 50.55 258.71 C54.64 260.87 58.76 262.97 62.88 265.08 C64.11 265.71 64.11 265.71 65.36 266.35 C67.05 267.21 68.73 268.07 70.41 268.93 C74.9 271.22 79.39 273.52 83.88 275.82 C84.77 276.27 85.65 276.72 86.56 277.19 C93.68 280.83 100.78 284.5 107.88 288.19 C117.95 293.42 128.03 298.62 138.12 303.81 C138.86 304.19 139.6 304.57 140.36 304.96 C143.34 306.5 146.33 308.03 149.32 309.56 C154.42 312.19 159.52 314.81 164.62 317.43 C165.32 317.79 166.02 318.15 166.74 318.52 C170.19 320.3 173.63 322.08 177.08 323.87 C183.04 326.96 189 330.02 195.05 332.94 C197.61 334.17 200.15 335.43 202.7 336.68 C204.45 337.54 206.22 338.36 207.99 339.18 C215.47 342.89 215.47 342.89 216.92 345.93 C217.23 348.04 217.19 349.88 217 352 C217.03 353.2 217.06 354.39 217.1 355.62 C217.07 358.75 217.03 361.88 217 365 C216.13 364.57 215.27 364.13 214.37 363.69 C207.01 360 199.65 356.32 192.28 352.65 C188.01 350.52 183.74 348.39 179.47 346.26 C177.29 345.17 175.1 344.08 172.92 343 C161.55 337.34 150.23 331.64 139.01 325.68 C129.43 320.61 119.71 315.82 110 311 C98.66 305.37 87.36 299.7 76.18 293.77 C66.54 288.67 56.76 283.85 47 279 C33.94 272.52 20.94 265.95 8.08 259.08 C5.4 257.69 2.7 256.35 0 255 C0 170.85 0 86.7 0 0 Z " fill="#00A3FE" transform="translate(417,430)"/>
<path d="M0 0 C13.57 -1.4 23.11 2.14 33.98 10.22 C40.21 15.58 46.7 21.94 49.5 29.81 C51.58 34.23 53.6 34.99 58 37 C59.98 37.49 59.98 37.49 62 38 C62 46.58 62 55.16 62 64 C60.02 64.99 60.02 64.99 58 66 C57.48 68.74 57.48 68.74 57.56 72 C56.8 88.19 52.07 101.55 40.12 112.88 C30.43 120.79 19.38 123.92 7 123 C-4.73 121.57 -14.04 115.56 -22 107 C-22.33 106.31 -22.65 105.62 -22.99 104.9 C-24.38 102.28 -26.1 101.53 -28.69 100.12 C-39.71 93.75 -48.25 84.9 -51.62 72.29 C-52 70 -52 70 -51.94 67.4 C-51.79 64.73 -51.79 64.73 -54 62 C-54.26 59.31 -54.09 56.71 -54 54 C-53.01 53.51 -53.01 53.51 -52 53 C-51.16 54.93 -50.33 56.87 -49.5 58.81 C-49.04 59.89 -48.57 60.97 -48.09 62.08 C-47 65 -47 65 -47 68 C-46.34 68 -45.68 68 -45 68 C-45.06 67.11 -45.12 66.23 -45.19 65.31 C-44.97 61.54 -44.45 59.86 -42 57 C-37.87 55.29 -35.16 56.15 -31.19 57.75 C-30.34 58.12 -29.49 58.49 -28.61 58.88 C-24.83 60.51 -20.93 61.75 -17 63 C-17 63.99 -17 64.98 -17 66 C-9.77 67.67 -2.85 66.74 4 64 C4.33 63.67 4.66 63.34 5 63 C4.34 62.34 3.68 61.68 3 61 C5.07 57.9 6.65 56.53 10 55 C15.37 51.92 19.74 48.01 21.64 41.97 C22.09 39.84 22.09 39.84 22 37 C22.94 34.94 22.94 34.94 24 33 C25.42 30.16 24.86 28.01 24.56 24.88 C24.41 23.23 24.41 23.23 24.25 21.55 C24.17 20.71 24.09 19.87 24 19 C25.32 18.34 26.64 17.68 28 17 C30.31 19.97 32.62 22.94 35 26 C33.34 17.68 28.04 14.02 21.45 9.15 C16.96 6.17 12.16 4.58 7.03 2.97 C4.51 2.16 2.32 1.27 0 0 Z " fill="#0093FE" transform="translate(693,1129)"/>
<path d="M0 0 C0 0.33 0 0.66 0 1 C-2.31 1.33 -4.62 1.66 -7 2 C-6.14 2.24 -5.28 2.49 -4.39 2.74 C7.62 6.54 17.32 12.77 25 23 C25.31 25.88 25.31 25.88 25 28 C22.07 25.15 19.36 22.35 17 19 C15.51 19.49 15.51 19.49 14 20 C14.16 21.36 14.16 21.36 14.32 22.74 C14.44 23.92 14.56 25.1 14.69 26.31 C14.82 27.48 14.94 28.66 15.07 29.86 C15 33 15 33 13.49 34.79 C13 35.19 12.51 35.59 12 36 C12.41 38.05 12.41 38.05 13 40 C12.01 40.99 12.01 40.99 11 42 C10.86 42.78 10.72 43.56 10.58 44.36 C9.9 47.47 8.81 48.84 6.69 51.19 C6.09 51.86 5.5 52.54 4.89 53.23 C3 55 1.33 55.91 -1 57 C-1.99 57.99 -1.99 57.99 -3 59 C-3.99 59.33 -4.98 59.66 -6 60 C-6.5 60.99 -6.5 60.99 -7 62 C-6.01 62.99 -6.01 62.99 -5 64 C-6.69 66.06 -7.62 66.92 -10.27 67.48 C-11.11 67.53 -11.95 67.57 -12.81 67.62 C-15.68 67.82 -18.25 68.06 -21.06 68.69 C-25.27 69.13 -28.95 68.09 -33 67 C-31.02 66.01 -31.02 66.01 -29 65 C-30.28 64.59 -30.28 64.59 -31.59 64.17 C-36.1 62.62 -40.48 60.77 -44.88 58.93 C-48.16 57.95 -49.8 57.9 -53 59 C-55.22 61.99 -55.51 65.37 -56 69 C-56.66 69 -57.32 69 -58 69 C-58.35 68.07 -58.7 67.15 -59.06 66.19 C-59.51 64.99 -59.97 63.8 -60.44 62.56 C-61.12 60.77 -61.12 60.77 -61.81 58.94 C-62.71 56.16 -62.71 56.16 -64 55 C-64 58.3 -64 61.6 -64 65 C-63.34 65.33 -62.68 65.66 -62 66 C-61.59 68.5 -61.59 68.5 -61.38 71.56 C-61.3 72.57 -61.23 73.59 -61.15 74.63 C-61.1 75.41 -61.05 76.19 -61 77 C-63.15 74.85 -63.64 73.6 -64.56 70.75 C-64.81 70 -65.06 69.25 -65.32 68.48 C-69.51 53.25 -67.86 37.5 -60.25 23.75 C-52.9 12.34 -41.44 3.77 -28.19 0.45 C-18.86 -1.48 -9.39 -1.71 0 0 Z " fill="#00ABFE" transform="translate(704,1128)"/>
<path d="M0 0 C0.33 0 0.66 0 1 0 C1 20.46 1 40.92 1 62 C2.65 62.66 4.3 63.32 6 64 C7.32 64.62 8.63 65.25 9.94 65.9 C10.68 66.27 11.42 66.64 12.18 67.02 C12.97 67.42 13.76 67.81 14.57 68.22 C15.82 68.84 15.82 68.84 17.1 69.48 C18.88 70.37 20.65 71.26 22.42 72.15 C25.07 73.47 27.71 74.79 30.36 76.11 C39.82 80.84 49.23 85.67 58.58 90.62 C64.02 93.49 69.48 96.29 75 99 C81.51 102.23 87.96 105.53 94.38 108.94 C101.2 112.56 108.08 116.06 115 119.5 C122.71 123.33 130.35 127.26 137.96 131.3 C143.6 134.29 149.28 137.16 155 140 C161.85 143.4 168.67 146.88 175.44 150.44 C176.22 150.85 177.01 151.26 177.82 151.69 C179.27 152.45 180.7 153.23 182.13 154.02 C184.15 155.13 184.15 155.13 187.02 156.15 C189.5 158.47 189.35 159.34 189.49 162.67 C189.46 164.51 189.4 166.35 189.31 168.19 C189.28 169.6 189.28 169.6 189.24 171.04 C189.19 173.36 189.1 175.68 189 178 C184.3 176.57 180.04 174.62 175.71 172.36 C175.01 172 174.32 171.64 173.6 171.27 C171.34 170.1 169.07 168.93 166.81 167.75 C165.23 166.93 163.64 166.11 162.06 165.29 C158.1 163.24 154.14 161.19 150.18 159.13 C147.03 157.49 143.87 155.86 140.71 154.22 C136.33 151.96 131.96 149.69 127.59 147.42 C120.61 143.8 113.62 140.18 106.62 136.56 C105.72 136.1 105.72 136.1 104.8 135.62 C101.75 134.04 98.7 132.47 95.66 130.89 C89 127.45 82.35 124.01 75.69 120.56 C73.88 119.63 72.07 118.69 70.26 117.75 C69.66 117.44 69.06 117.14 68.45 116.82 C63.58 114.3 58.72 111.78 53.85 109.27 C50.82 107.7 47.79 106.13 44.75 104.56 C43.55 103.94 42.35 103.32 41.15 102.7 C40.56 102.39 39.97 102.09 39.36 101.77 C35.2 99.62 31.04 97.48 26.88 95.33 C13.47 88.42 0.17 81.36 -13 74 C-13 73.34 -13 72.68 -13 72 C-11.26 70.55 -9.46 69.19 -7.62 67.88 C-6.13 66.79 -6.13 66.79 -4.6 65.68 C-2 64 -2 64 0 64 C0 42.88 0 21.76 0 0 Z " fill="#01A4FE" transform="translate(210,499)"/>
<path d="M0 0 C3.84 1.54 7.22 3.13 10.81 5.12 C12.28 5.93 12.28 5.93 13.77 6.76 C14.51 7.17 15.24 7.58 16 8 C16.23 37.8 16.41 67.6 16.51 97.4 C16.52 100.92 16.54 104.44 16.55 107.96 C16.55 109.01 16.55 109.01 16.56 110.09 C16.6 121.43 16.68 132.77 16.77 144.11 C16.87 155.75 16.92 167.39 16.94 179.02 C16.95 185.56 16.98 192.1 17.06 198.63 C17.13 204.79 17.15 210.94 17.13 217.09 C17.13 219.35 17.15 221.61 17.19 223.86 C17.47 240.86 17.47 240.86 13.91 246.05 C11.33 248.19 9.04 249.61 6 251 C4.02 251.99 2.04 252.98 0 254 C0 170.18 0 86.36 0 0 Z " fill="#0045DA" transform="translate(417,430)"/>
<path d="M0 0 C4.15 1.38 7.56 2.67 11.38 4.62 C12.25 5.07 13.12 5.52 14.02 5.98 C14.68 6.31 15.33 6.65 16 7 C16.26 32.14 16.45 57.28 16.57 82.42 C16.63 94.09 16.7 105.76 16.83 117.44 C16.94 127.61 17.01 137.79 17.03 147.96 C17.05 153.35 17.08 158.73 17.16 164.12 C17.24 169.19 17.26 174.27 17.24 179.34 C17.25 181.2 17.27 183.06 17.31 184.92 C17.61 198.91 17.61 198.91 13.64 204.05 C10.86 206.38 8.16 208.23 5 210 C3.35 210.99 1.7 211.98 0 213 C0 142.71 0 72.42 0 0 Z " fill="#0042DA" transform="translate(417,705)"/>
<path d="M0 0 C13.57 -1.4 23.11 2.14 33.98 10.22 C40.21 15.58 46.7 21.94 49.5 29.81 C51.58 34.23 53.6 34.99 58 37 C59.98 37.49 59.98 37.49 62 38 C62 46.58 62 55.16 62 64 C59.03 64.99 56.06 65.98 53 67 C50.87 70.3 50.87 70.3 49.94 74.19 C49.74 74.84 49.54 75.5 49.34 76.17 C48.86 77.77 48.42 79.38 48 81 C47.34 81 46.68 81 46 81 C45.79 81.68 45.59 82.36 45.38 83.06 C40.23 94.05 27.96 100.78 17 105 C12.61 106.24 8.22 106.12 3.69 106.06 C2.95 106.06 2.21 106.05 1.44 106.05 C-0.37 106.04 -2.19 106.02 -4 106 C-2.02 105.51 -2.02 105.51 0 105 C0 104.34 0 103.68 0 103 C-3.63 102.34 -7.26 101.68 -11 101 C-11 99.68 -11 98.36 -11 97 C-9 96 -9 96 -6.24 96.09 C0.53 95.91 6.56 92.13 11.57 87.76 C16.88 82.12 20.63 75.95 24 69 C24.66 69 25.32 69 26 69 C29.01 57.08 31.24 45.17 33 33 C34.18 33.49 34.18 33.49 35.38 34 C37.84 35.12 37.84 35.12 40 35 C39.83 26.83 34.89 22.2 29.62 16.38 C28.76 15.59 27.89 14.81 27 14 C26.4 13.45 25.8 12.89 25.18 12.32 C19.65 7.58 14.04 5.27 7.14 3.04 C4.59 2.2 2.35 1.28 0 0 Z " fill="#0075FA" transform="translate(693,1129)"/>
<path d="M0 0 C0.5 0.99 0.5 0.99 1 2 C-1.48 1.51 -1.48 1.51 -4 1 C-4 1.66 -4 2.32 -4 3 C-3.08 3.36 -3.08 3.36 -2.14 3.73 C1.23 5.73 1.92 8.36 3.25 11.93 C4.81 18.32 5.09 25.72 3 32 C1.36 33.69 -0.31 35.35 -2 37 C-2.74 38.03 -3.49 39.06 -4.25 40.12 C-9.37 45.48 -15.23 46.18 -22.44 46.5 C-28.14 46.39 -31.94 45 -36.83 42.18 C-39.5 40.73 -41.98 40.24 -45 40 C-45 39.01 -45 38.02 -45 37 C-45.76 37.21 -46.53 37.41 -47.31 37.62 C-50 38 -50 38 -53 36 C-53 35.01 -53 34.02 -53 33 C-53.99 33 -54.98 33 -56 33 C-55.65 23.67 -51.42 16.97 -44.69 10.62 C-39.86 6.59 -34.44 3 -28 3 C-28 2.34 -28 1.68 -28 1 C-19.64 -1.79 -8.61 -1.92 0 0 Z " fill="#00B8FE" transform="translate(701,1132)"/>
<path d="M0 0 C1.32 0 2.64 0 4 0 C5.05 14.55 2.54 29.21 -6.9 40.74 C-15.62 50.13 -25.48 56.22 -38.47 57.18 C-52.41 57.55 -62.7 52.51 -72.97 43.28 C-75.07 40.93 -76.03 38.98 -77 36 C-76.32 36.2 -75.65 36.41 -74.95 36.62 C-74.06 36.89 -73.17 37.16 -72.25 37.44 C-71.37 37.7 -70.49 37.97 -69.58 38.25 C-57.49 41.78 -42.61 42.5 -31.25 36.5 C-28.77 35.09 -26.38 33.58 -24 32 C-22.94 31.34 -21.88 30.68 -20.79 30 C-15.2 26.28 -11.45 22.54 -8.12 16.69 C-7.75 16.13 -7.38 15.57 -7 15 C-6.34 15 -5.68 15 -5 15 C-4.81 14.17 -4.61 13.34 -4.41 12.48 C-4.15 11.39 -3.89 10.31 -3.62 9.19 C-3.37 8.11 -3.11 7.03 -2.85 5.92 C-2 3 -2 3 0 0 Z " fill="#01A7D7" transform="translate(746,1195)"/>
<path d="M0 0 C0.66 0 1.32 0 2 0 C3.26 2.91 4 4.8 4 8 C4.74 7.51 5.49 7.01 6.25 6.5 C9 5 9 5 13 5 C13.09 8.77 13.14 12.54 13.19 16.31 C13.21 17.38 13.24 18.46 13.26 19.56 C13.27 20.59 13.28 21.62 13.29 22.68 C13.31 23.62 13.32 24.57 13.34 25.55 C13 28 13 28 11.64 29.82 C10 31 10 31 7.49 31.25 C6.67 31.49 5.85 31.74 5 32 C3.78 34.44 2.96 36.49 2.19 39.06 C1.97 39.73 1.76 40.39 1.53 41.07 C1 42.71 0.5 44.35 0 46 C-0.66 46 -1.32 46 -2 46 C-2.31 47.02 -2.31 47.02 -2.62 48.06 C-6.95 57.31 -15.42 62.15 -24 67 C-24.66 67 -25.32 67 -26 67 C-26 66.34 -26 65.68 -26 65 C-24.01 63.66 -22.01 62.32 -20 61 C-17.42 58.75 -17.42 58.75 -15 56 C-14.53 55.48 -14.05 54.96 -13.57 54.43 C-8.98 48.92 -6.68 42.73 -4.2 36.1 C-3 33 -3 33 -2 32 C-1.91 30 -1.89 28 -1.9 26 C-1.91 24.78 -1.91 23.57 -1.91 22.31 C-1.92 21.04 -1.93 19.76 -1.94 18.44 C-1.94 16.51 -1.94 16.51 -1.95 14.55 C-1.96 11.37 -1.98 8.18 -2 5 C-1.67 5 -1.34 5 -1 5 C-0.67 3.35 -0.34 1.7 0 0 Z " fill="#0045E1" transform="translate(741,1164)"/>
<path d="M0 0 C-2.68 1.79 -5.33 3.22 -8.19 4.69 C-21.61 12 -28.17 22.75 -35 36 C-36.65 35.34 -38.3 34.68 -40 34 C-40 33.01 -40 32.02 -40 31 C-40.99 31 -41.98 31 -43 31 C-42.66 21.76 -38.46 15.05 -31.88 8.69 C-21.91 0.5 -12.41 -0.76 0 0 Z " fill="#A8E8FE" transform="translate(688,1134)"/>
<path d="M0 0 C0.77 -0.01 1.54 -0.03 2.34 -0.04 C4.9 0.22 6.45 0.81 8.62 2.19 C10.9 5.56 11.62 7.61 11.62 11.69 C10.17 16.77 7.91 19.9 3.19 22.56 C-1.56 23.72 -4.27 23.8 -8.62 21.38 C-11.92 18.75 -13.2 17.17 -13.94 13 C-13.15 7.64 -10.27 4.8 -6.38 1.19 C-4.05 0.02 -2.59 0.02 0 0 Z " fill="#3CCFFE" transform="translate(686.375,1144.8125)"/>
<path d="M0 0 C13.56 -1.4 23.22 2.1 34.02 10.29 C36.47 12.43 38.75 14.65 41 17 C41.63 17.6 42.26 18.19 42.9 18.81 C47.16 23.15 47.97 26.99 48 33 C47.34 33 46.68 33 46 33 C45.67 33.99 45.34 34.98 45 36 C44.01 36.49 44.01 36.49 43 37 C42.65 36.24 42.3 35.48 41.93 34.69 C34.99 20.18 26.04 9.58 10.5 4.06 C8.78 3.52 8.78 3.52 7.03 2.97 C4.51 2.16 2.32 1.27 0 0 Z " fill="#005AEE" transform="translate(693,1129)"/>
<path d="M0 0 C2.15 3.23 2.2 4.28 2 8 C2.99 8.33 3.98 8.66 5 9 C5 9.66 5 10.32 5 11 C5.66 11.33 6.32 11.66 7 12 C5.68 14.64 4.36 17.28 3 20 C0.52 19.01 0.52 19.01 -2 18 C-2 17.01 -2 16.02 -2 15 C-2.99 15 -3.98 15 -5 15 C-4.57 8.85 -3.35 5.18 0 0 Z " fill="#94E2FE" transform="translate(650,1150)"/>
<path d="M0 0 C3.63 1.32 7.26 2.64 11 4 C11 12.58 11 21.16 11 30 C10.01 30 9.02 30 8 30 C8.33 29.67 8.66 29.34 9 29 C9.16 27.29 9.25 25.58 9.32 23.87 C9.36 22.84 9.4 21.8 9.44 20.74 C9.48 19.65 9.52 18.56 9.56 17.44 C9.61 16.35 9.65 15.25 9.69 14.13 C9.8 11.42 9.9 8.71 10 6 C9.26 6.31 8.51 6.62 7.75 6.94 C5 8 5 8 1 9 C0.67 6.03 0.34 3.06 0 0 Z " fill="#01A5F9" transform="translate(744,1163)"/>
<path d="M0 0 C1.03 0.01 1.03 0.01 2.09 0.03 C3.77 0.05 5.45 0.09 7.12 0.12 C4.14 2.11 1.15 3.66 -2.06 5.25 C-3.69 6.06 -3.69 6.06 -5.36 6.88 C-6.19 7.29 -7.02 7.7 -7.88 8.12 C-7.88 7.13 -7.88 6.14 -7.88 5.12 C-8.53 5.12 -9.2 5.12 -9.88 5.12 C-9.88 4.46 -9.88 3.81 -9.88 3.12 C-11.2 2.8 -12.51 2.46 -13.88 2.12 C-9.17 0.26 -5 -0.13 0 0 Z " fill="#64D8FE" transform="translate(680.875,1133.875)"/>
<path d="M0 0 C0.06 0.62 0.12 1.24 0.19 1.88 C0.81 4.25 0.81 4.25 3.38 5.06 C4.67 5.53 4.67 5.53 6 6 C7.81 7.62 7.81 7.62 9 9 C8.34 10.32 7.68 11.64 7 13 C4.52 12.01 4.52 12.01 2 11 C2 10.01 2 9.02 2 8 C1.01 8 0.02 8 -1 8 C-0.67 5.36 -0.34 2.72 0 0 Z " fill="#5FD6FE" transform="translate(646,1157)"/>
<path d="M0 0 C0.33 0.66 0.66 1.32 1 2 C1.99 2 2.98 2 4 2 C4 2.99 4 3.98 4 5 C5.32 5.66 6.64 6.32 8 7 C4.8 7 2.91 6.26 0 5 C0 3.35 0 1.7 0 0 Z " fill="#2FCDFF" transform="translate(644,1163)"/>
</svg>
